Coordinates
version=1
nRows=21
nColumns=12
inDegrees=yes

Units are S.I. units (second, meters, Newtons, ...)
Angles are in degrees

endheader
time	SC_y	SC_z	SC_x	AC_y	AC_z	AC_x	GH_y	GH_z	GH_yy	EL_x	PS_y
       0.0              -41.46           25.8          34.74          65.82         -4.739         -2.917         -74.15          12.14         -75.51          47.78          106.9
   0.03927              -41.46          25.79          34.75          65.82         -4.739         -2.917         -74.13          12.14         -75.47          47.78          106.9
   0.07853              -41.46          25.79          34.75          65.82         -4.739         -2.918         -74.11          12.13         -75.44          47.79          106.9
    0.1178              -41.46          25.79          34.76          65.81         -4.739         -2.918         -74.09          12.13          -75.4          47.79          106.9
    0.1571              -41.46          25.79          34.77          65.81         -4.739         -2.919         -74.06          12.13         -75.36           47.8          106.9
    0.1963              -41.46          25.78          34.77          65.81         -4.739         -2.919         -74.03          12.12         -75.32           47.8          106.9
    0.2356              -41.46          25.78          34.78          65.81         -4.739          -2.92          -74.0          12.12         -75.28          47.81          106.9
    0.2749              -41.46          25.77          34.79          65.81         -4.738          -2.92         -73.97          12.11         -75.23          47.81          106.9
    0.3141              -41.47          25.77           34.8          65.81         -4.738         -2.921         -73.94          12.11         -75.18          47.82          106.9
    0.3534              -41.47          25.77          34.81          65.81         -4.738         -2.921         -73.91           12.1         -75.12          47.83          106.9
    0.3927              -41.47          25.76          34.82          65.81         -4.738         -2.922         -73.87          12.09         -75.06          47.84          106.9
    0.4319              -41.47          25.76          34.83          65.81         -4.738         -2.923         -73.83          12.09          -75.0          47.84          106.9
    0.4712              -41.47          25.75          34.84           65.8         -4.737         -2.924         -73.78          12.08         -74.93          47.85          106.9
    0.5105              -41.48          25.74          34.85           65.8         -4.737         -2.924         -73.74          12.07         -74.86          47.86          106.9
    0.5497              -41.48          25.74          34.86           65.8         -4.737         -2.925         -73.68          12.06         -74.78          47.87          106.8
     0.589              -41.48          25.73          34.88           65.8         -4.736         -2.926         -73.63          12.05         -74.69          47.88          106.8
    0.6283              -41.48          25.72          34.89           65.8         -4.736         -2.928         -73.57          12.04          -74.6           47.9          106.8
    0.6675              -41.49          25.71          34.91          65.79         -4.736         -2.929          -73.5          12.03          -74.5          47.91          106.8
    0.7068              -41.49           25.7          34.93          65.79         -4.735          -2.93         -73.43          12.02         -74.38          47.92          106.8
    0.7461              -41.49          25.69          34.95          65.79         -4.735         -2.932         -73.35          12.01         -74.26          47.94          106.8
    0.7853               -41.5          25.68          34.97          65.79         -4.734         -2.933         -73.26          11.99         -74.13          47.96          106.8
